<?xml version="1.0" standalone="no"?>
<!DOCTYPE svg PUBLIC "-//W3C//DTD SVG 20010904//EN"
 "http://www.w3.org/TR/2001/REC-SVG-20010904/DTD/svg10.dtd">
<svg version="1.0" xmlns="http://www.w3.org/2000/svg"
 width="442.000000pt" height="465.000000pt" viewBox="0 0 442.000000 465.000000"
 preserveAspectRatio="xMidYMid meet">

<g transform="translate(0.000000,465.000000) scale(0.100000,-0.100000)"
fill="#000000" stroke="none">
<path d="M1955 4210 c-303 -49 -603 -215 -809 -446 -182 -203 -285 -406 -348
-680 l-22 -99 -3 -1252 -4 -1253 401 -1 c513 -2 1547 -2 2060 0 l401 1 -4
1252 -3 1253 -22 99 c-63 274 -166 477 -348 680 -182 205 -413 345 -699 423
-81 23 -112 25 -320 28 -126 2 -252 0 -280 -5z m448 -135 c111 -20 246 -59
317 -92 410 -191 685 -547 755 -978 13 -76 15 -276 15 -1242 l0 -1153 -125 0
-124 0 -4 1178 c-3 1310 2 1209 -72 1399 -95 242 -277 436 -519 553 -161 78
-238 94 -446 94 -208 0 -285 -16 -446 -94 -242 -117 -424 -311 -519 -553 -74
-190 -69 -89 -72 -1399 l-4 -1178 -124 0 -125 0 0 1153 c0 966 2 1166 15 1242
70 431 345 786 755 978 66 31 207 72 310 91 104 19 306 19 413 1z m35 -404
c251 -73 459 -244 575 -476 45 -90 76 -210 87 -333 7 -74 10 -504 8 -1182 l-3
-1065 -127 -3 -128 -3 0 1139 c0 1093 -1 1142 -19 1214 -36 140 -106 251 -216
342 -124 101 -250 146 -415 146 -165 0 -291 -45 -415 -146 -110 -91 -180 -202
-216 -342 -18 -72 -19 -121 -19 -1214 l0 -1139 -127 3 -128 3 -3 1065 c-3
1145 0 1243 44 1382 104 329 373 566 712 628 83 16 308 4 390 -19z m-98 -378
c171 -47 310 -189 361 -368 12 -42 14 -238 14 -1180 l0 -1130 -127 -3 -128 -3
-2 1140 -3 1139 -40 59 c-31 45 -53 64 -98 87 -122 61 -254 26 -332 -87 l-40
-59 -3 -1139 -2 -1140 -128 3 -127 3 0 1130 c0 942 2 1138 14 1180 24 85 71
167 133 231 132 138 320 189 508 137z m-80 -381 c75 -40 70 43 70 -1194 l0
-1108 -130 0 -130 0 0 1108 c0 1034 1 1109 18 1141 19 37 72 71 112 71 14 0
41 -8 60 -18z"/>
</g>
</svg>
