<svg id="Layer_1" data-name="Layer 1" xmlns="http://www.w3.org/2000/svg" viewBox="0 0 96 126"><path d="M48,4.345A43.542,43.542,0,0,0,4.364,47.793v73.862H91.636V47.793A43.542,43.542,0,0,0,48,4.345ZM96,47.793a48,48,0,0,0-96,0V126H96Z" fill-rule="evenodd"></path><path d="M78.546,121.655V47.793a30.546,30.546,0,0,0-61.091,0v73.862Zm4.363-73.862a34.909,34.909,0,0,0-69.818,0V126H82.909Z" fill-rule="evenodd"></path><path d="M65.454,121.655V47.793a17.455,17.455,0,0,0-34.909,0v73.862Zm4.364-73.862a21.818,21.818,0,0,0-43.636,0V126H69.818Z" fill-rule="evenodd"></path><path d="M52.364,121.655V47.793a4.364,4.364,0,0,0-8.728,0v73.862Zm4.363-73.862a8.727,8.727,0,0,0-17.454,0V126H56.727Z" fill-rule="evenodd"></path></svg>